<svg width="40" height="40" viewBox="0 0 40 40" fill="none" xmlns="http://www.w3.org/2000/svg">
<path d="M31.6668 15C30.6353 15.0029 29.6298 15.3248 28.7884 15.9216C27.9469 16.5184 27.3107 17.3608 26.9668 18.3334H5.00016C4.55814 18.3334 4.13421 18.5089 3.82165 18.8215C3.50909 19.1341 3.3335 19.558 3.3335 20C3.3335 20.442 3.50909 20.866 3.82165 21.1785C4.13421 21.4911 4.55814 21.6667 5.00016 21.6667H26.9668C27.2726 22.5315 27.8103 23.2955 28.5212 23.8751C29.2321 24.4548 30.0888 24.8277 30.9974 24.9531C31.9061 25.0784 32.8317 24.9515 33.673 24.586C34.5143 24.2205 35.2389 23.6307 35.7674 22.881C36.2959 22.1313 36.608 21.2507 36.6696 20.3355C36.7311 19.4203 36.5398 18.5058 36.1164 17.6921C35.693 16.8784 35.0539 16.1969 34.2692 15.7221C33.4844 15.2472 32.5841 14.9974 31.6668 15ZM31.6668 21.6667C31.3372 21.6667 31.015 21.5689 30.7409 21.3858C30.4668 21.2027 30.2532 20.9424 30.127 20.6378C30.0009 20.3333 29.9679 19.9982 30.0322 19.6749C30.0965 19.3516 30.2552 19.0546 30.4883 18.8215C30.7214 18.5884 31.0184 18.4297 31.3417 18.3654C31.665 18.3011 32.0001 18.3341 32.3046 18.4602C32.6092 18.5864 32.8695 18.8 33.0526 19.0741C33.2357 19.3482 33.3335 19.6704 33.3335 20C33.3335 20.442 33.1579 20.866 32.8453 21.1785C32.5328 21.4911 32.1089 21.6667 31.6668 21.6667Z" fill="#231F20"/>
<path d="M5.00016 11.6665H6.96683C7.31717 12.6318 7.95621 13.4658 8.79711 14.0551C9.638 14.6445 10.64 14.9607 11.6668 14.9607C12.6937 14.9607 13.6957 14.6445 14.5366 14.0551C15.3774 13.4658 16.0165 12.6318 16.3668 11.6665H35.0002C35.4422 11.6665 35.8661 11.4909 36.1787 11.1784C36.4912 10.8658 36.6668 10.4419 36.6668 9.99986C36.6668 9.55783 36.4912 9.13391 36.1787 8.82135C35.8661 8.50879 35.4422 8.33319 35.0002 8.33319H16.3668C16.0165 7.36794 15.3774 6.53396 14.5366 5.94459C13.6957 5.35523 12.6937 5.03906 11.6668 5.03906C10.64 5.03906 9.638 5.35523 8.79711 5.94459C7.95621 6.53396 7.31717 7.36794 6.96683 8.33319H5.00016C4.55814 8.33319 4.13421 8.50879 3.82165 8.82135C3.50909 9.13391 3.3335 9.55783 3.3335 9.99986C3.3335 10.4419 3.50909 10.8658 3.82165 11.1784C4.13421 11.4909 4.55814 11.6665 5.00016 11.6665ZM11.6668 8.33319C11.9965 8.33319 12.3187 8.43094 12.5928 8.61407C12.8669 8.79721 13.0805 9.05751 13.2066 9.36205C13.3328 9.66659 13.3658 10.0017 13.3015 10.325C13.2372 10.6483 13.0784 10.9453 12.8453 11.1784C12.6123 11.4115 12.3153 11.5702 11.992 11.6345C11.6687 11.6988 11.3336 11.6658 11.029 11.5397C10.7245 11.4135 10.4642 11.1999 10.281 10.9258C10.0979 10.6517 10.0002 10.3295 10.0002 9.99986C10.0002 9.55783 10.1758 9.13391 10.4883 8.82135C10.8009 8.50879 11.2248 8.33319 11.6668 8.33319Z" fill="#231F20"/>
<path d="M35.0002 28.3332H23.0335C22.6832 27.3679 22.0441 26.534 21.2032 25.9446C20.3623 25.3552 19.3604 25.0391 18.3335 25.0391C17.3066 25.0391 16.3047 25.3552 15.4638 25.9446C14.6229 26.534 13.9838 27.3679 13.6335 28.3332H5.00016C4.55814 28.3332 4.13421 28.5088 3.82165 28.8213C3.50909 29.1339 3.3335 29.5578 3.3335 29.9999C3.3335 30.4419 3.50909 30.8658 3.82165 31.1784C4.13421 31.4909 4.55814 31.6665 5.00016 31.6665H13.6335C13.9838 32.6318 14.6229 33.4658 15.4638 34.0551C16.3047 34.6445 17.3066 34.9607 18.3335 34.9607C19.3604 34.9607 20.3623 34.6445 21.2032 34.0551C22.0441 33.4658 22.6832 32.6318 23.0335 31.6665H35.0002C35.4422 31.6665 35.8661 31.4909 36.1787 31.1784C36.4912 30.8658 36.6668 30.4419 36.6668 29.9999C36.6668 29.5578 36.4912 29.1339 36.1787 28.8213C35.8661 28.5088 35.4422 28.3332 35.0002 28.3332ZM18.3335 31.6665C18.0039 31.6665 17.6816 31.5688 17.4075 31.3856C17.1335 31.2025 16.9198 30.9422 16.7937 30.6377C16.6676 30.3331 16.6345 29.998 16.6989 29.6747C16.7632 29.3514 16.9219 29.0544 17.155 28.8213C17.3881 28.5883 17.685 28.4295 18.0083 28.3652C18.3316 28.3009 18.6668 28.3339 18.9713 28.4601C19.2758 28.5862 19.5361 28.7998 19.7193 29.0739C19.9024 29.348 20.0002 29.6702 20.0002 29.9999C20.0002 30.4419 19.8246 30.8658 19.512 31.1784C19.1994 31.4909 18.7755 31.6665 18.3335 31.6665Z" fill="#231F20"/>
</svg>
