<svg width="4347" height="2987" viewBox="0 0 4347 2987" fill="none" xmlns="http://www.w3.org/2000/svg">
<path fill-rule="evenodd" clip-rule="evenodd" d="M2874 1094H1430V2120.39C1430 2191.08 1487.3 2248.38 1557.99 2248.38H2746.01C2816.7 2248.38 2874 2191.08 2874 2120.39V1094ZM2761 1185H1544V2050.04C1544 2109.61 1592.3 2157.91 1651.87 2157.91H2653.13C2712.7 2157.91 2761 2109.61 2761 2050.04V1185Z" fill="#7AD6CC"/>
<path d="M2054.6 2029.74C2014.12 2029.74 1978.18 2022.99 1946.79 2009.5C1915.67 1995.73 1891.03 1975.08 1872.85 1947.54C1854.95 1919.73 1846 1884.89 1846 1843.03C1846 1807.78 1852.2 1778.04 1864.59 1753.81C1876.98 1729.58 1894.06 1709.89 1915.81 1694.74C1937.57 1679.59 1962.63 1668.17 1990.99 1660.46C2019.35 1652.47 2049.65 1647.1 2081.87 1644.35C2117.94 1641.04 2146.99 1637.6 2169.02 1634.02C2191.05 1630.16 2207.03 1624.79 2216.94 1617.91C2227.13 1610.75 2232.22 1600.7 2232.22 1587.76V1585.69C2232.22 1564.49 2224.92 1548.1 2210.33 1536.54C2195.73 1524.97 2176.04 1519.19 2151.26 1519.19C2124.55 1519.19 2103.07 1524.97 2086.82 1536.54C2070.57 1548.1 2060.25 1564.07 2055.84 1584.45L1869.55 1577.84C1875.06 1539.29 1889.24 1504.87 1912.09 1474.58C1935.23 1444.01 1966.89 1420.05 2007.1 1402.7C2047.58 1385.08 2096.18 1376.26 2152.91 1376.26C2193.39 1376.26 2230.71 1381.08 2264.85 1390.72C2299 1400.08 2328.74 1413.85 2354.08 1432.03C2379.41 1449.93 2398.96 1471.96 2412.73 1498.12C2426.78 1524.28 2433.8 1554.16 2433.8 1587.76V2019H2243.79V1930.6H2238.83C2227.54 1952.08 2213.08 1970.26 2195.46 1985.13C2178.11 2000 2157.59 2011.15 2133.91 2018.59C2110.5 2026.02 2084.07 2029.74 2054.6 2029.74ZM2116.98 1897.56C2138.73 1897.56 2158.28 1893.15 2175.63 1884.34C2193.26 1875.53 2207.3 1863.41 2217.76 1847.99C2228.23 1832.29 2233.46 1814.12 2233.46 1793.46V1733.16C2227.68 1736.19 2220.66 1738.94 2212.4 1741.42C2204.41 1743.9 2195.6 1746.24 2185.96 1748.44C2176.32 1750.64 2166.41 1752.57 2156.22 1754.22C2146.03 1755.88 2136.25 1757.39 2126.89 1758.77C2107.89 1761.8 2091.64 1766.48 2078.15 1772.81C2064.93 1779.14 2054.74 1787.41 2047.58 1797.59C2040.7 1807.51 2037.25 1819.35 2037.25 1833.12C2037.25 1854.05 2044.69 1870.02 2059.56 1881.03C2074.71 1892.05 2093.84 1897.56 2116.98 1897.56Z" fill="#5CC6BA"/>
<path fill-rule="evenodd" clip-rule="evenodd" d="M1430 861C1430 809.085 1472.09 767 1524 767H2780C2831.91 767 2874 809.085 2874 861V1057H1430V861ZM1773.97 912.5C1773.97 974.632 1722.49 1025 1658.98 1025C1595.48 1025 1544 974.632 1544 912.5C1544 850.368 1595.48 800 1658.98 800C1722.49 800 1773.97 850.368 1773.97 912.5ZM2604.98 1025C2668.49 1025 2719.97 974.632 2719.97 912.5C2719.97 850.368 2668.49 800 2604.98 800C2541.48 800 2490 850.368 2490 912.5C2490 974.632 2541.48 1025 2604.98 1025Z" fill="#7AD6CC"/>
<rect x="1556" y="620" width="205.647" height="368" rx="92.4163" fill="#7AD6CC"/>
<rect x="2503" y="620" width="204.529" height="366" rx="91.914" fill="#7AD6CC"/>
</svg>
